<svg version="1.1" xmlns="http://www.w3.org/2000/svg" viewBox="0 0 666.9230769230769 309.23076923076906" width="1333.8461538461538" height="618.4615384615381">
  <!-- svg-source:excalidraw -->
  
  <defs>
    <style class="style-fonts">
      @font-face {
        font-family: "Virgil";
        src: url("https://excalidraw.com/Virgil.woff2");
      }
      @font-face {
        font-family: "Cascadia";
        src: url("https://excalidraw.com/Cascadia.woff2");
      }
      @font-face {
        font-family: "Assistant";
        src: url("https://app.excalidraw.com//dist/excalidraw-assets/Assistant-Regular.woff2");
      }
    </style>
    <clipPath id="a1VFgBlM4g1uiYIYXMKWL">
            <rect transform="translate(0 0) rotate(0 333.46153846153845 154.61538461538453)" width="666.9230769230769" height="309.23076923076906">
          </rect>
        </clipPath>
  </defs>
  <rect x="0" y="0" width="666.9230769230769" height="309.23076923076906" fill="#ffffff"></rect><g clip-path="url(#a1VFgBlM4g1uiYIYXMKWL)"><g stroke-linecap="round" transform="translate(86.03846153846177 78.60681152343705) rotate(0 65.5 65.5)"><path d="M3.37 -0.83 C42.64 -4.87, 85.71 -4.81, 130.14 1.45 M-0.94 -0.72 C36.64 -0.85, 74.51 -0.93, 131.88 -0.41 M128.74 1.82 C127.35 54.29, 133.72 105.49, 130.64 133.74 M132.56 0.24 C132.07 26.89, 131.63 55.84, 131.16 131.26 M128.01 132.43 C88.46 129.51, 52.6 129.97, -0.79 131.85 M130.6 132.87 C85.41 131.31, 38.76 131.94, -0.58 131.09 M-2.85 127.49 C-1.43 83.71, 2.51 33.57, 0.34 -1.98 M-1.38 130.95 C-3.01 83.06, -2.1 34.94, -0.77 0.59" stroke="#1e1e1e" stroke-width="1" fill="none"></path></g></g><g clip-path="url(#a1VFgBlM4g1uiYIYXMKWL)"><g stroke-linecap="round" transform="translate(185.9999999999999 100.02624511718705) rotate(0 5.384615384615415 5.384615384615358)"><path d="M4.39 0.26 C5.36 0.12, 7.01 0.57, 8 1.09 C9 1.6, 9.96 2.31, 10.34 3.35 C10.71 4.39, 10.7 6.14, 10.25 7.33 C9.8 8.53, 8.71 9.91, 7.67 10.51 C6.63 11.1, 5.1 11.11, 4.02 10.9 C2.93 10.69, 1.82 10.11, 1.13 9.25 C0.44 8.39, -0.08 6.93, -0.1 5.74 C-0.12 4.55, 0.27 3, 1.01 2.12 C1.75 1.24, 3.61 0.72, 4.34 0.47 C5.07 0.22, 5.31 0.53, 5.38 0.6 M4.8 0.22 C5.87 -0.25, 7.17 -0.27, 8.1 0.26 C9.04 0.8, 10.02 2.27, 10.43 3.41 C10.84 4.55, 10.94 6.01, 10.58 7.09 C10.23 8.18, 9.21 9.42, 8.29 9.93 C7.38 10.44, 6.2 10.41, 5.1 10.16 C4 9.92, 2.63 9.19, 1.69 8.46 C0.75 7.72, -0.37 6.82, -0.54 5.73 C-0.72 4.65, -0.17 2.83, 0.65 1.96 C1.47 1.1, 3.8 0.82, 4.37 0.57 C4.94 0.32, 4.11 0.31, 4.08 0.44" stroke="#1e1e1e" stroke-width="1" fill="none"></path></g></g><g clip-path="url(#a1VFgBlM4g1uiYIYXMKWL)"><g stroke-linecap="round" transform="translate(120.76923076923083 141.79911921574558) rotate(0 5.384615384615415 5.384615384615358)"><path d="M4.4 0.42 C5.47 0.1, 7.03 -0.02, 8.01 0.52 C8.99 1.06, 9.95 2.47, 10.29 3.67 C10.63 4.87, 10.49 6.62, 10.05 7.72 C9.61 8.83, 8.59 9.73, 7.63 10.3 C6.67 10.86, 5.37 11.3, 4.29 11.12 C3.2 10.93, 1.88 10.13, 1.12 9.2 C0.36 8.27, -0.25 6.7, -0.28 5.55 C-0.32 4.4, 0.01 3.15, 0.91 2.31 C1.82 1.47, 4.47 0.82, 5.14 0.52 C5.81 0.21, 5.06 0.44, 4.93 0.47 M6.75 -0.22 C7.75 -0.06, 9.02 1.18, 9.7 2.16 C10.38 3.15, 10.88 4.53, 10.83 5.67 C10.77 6.81, 10.11 8.25, 9.4 9 C8.68 9.75, 7.64 10.09, 6.54 10.16 C5.44 10.22, 3.93 9.88, 2.8 9.38 C1.66 8.88, 0.19 8.18, -0.29 7.15 C-0.76 6.13, -0.62 4.23, -0.07 3.22 C0.48 2.2, 1.95 1.55, 3.02 1.07 C4.09 0.59, 5.8 0.35, 6.35 0.33 C6.9 0.3, 6.24 0.9, 6.33 0.93" stroke="#1e1e1e" stroke-width="1" fill="none"></path></g></g><g clip-path="url(#a1VFgBlM4g1uiYIYXMKWL)"><g stroke-linecap="round" transform="translate(122.30769230769272 177.1837346003599) rotate(0 5.384615384615415 5.384615384615358)"><path d="M5.75 -0.21 C6.84 -0.23, 8.26 0.73, 9.03 1.66 C9.8 2.59, 10.32 4.2, 10.38 5.37 C10.44 6.55, 10.01 7.77, 9.39 8.71 C8.77 9.65, 7.72 10.71, 6.66 11.03 C5.59 11.36, 4.06 11.18, 2.99 10.66 C1.91 10.13, 0.75 8.91, 0.21 7.87 C-0.32 6.83, -0.62 5.47, -0.2 4.4 C0.22 3.33, 1.69 2.11, 2.72 1.44 C3.75 0.77, 5.48 0.58, 5.98 0.38 C6.48 0.18, 5.65 0.15, 5.72 0.25 M5.62 0.09 C6.68 0.13, 8.17 0.71, 9.03 1.46 C9.88 2.21, 10.5 3.58, 10.72 4.62 C10.95 5.65, 10.94 6.77, 10.38 7.65 C9.81 8.54, 8.6 9.45, 7.34 9.93 C6.09 10.4, 4.04 10.85, 2.84 10.5 C1.65 10.14, 0.61 8.75, 0.18 7.79 C-0.25 6.83, -0.01 5.8, 0.27 4.73 C0.56 3.66, 1.03 2.04, 1.89 1.37 C2.74 0.7, 4.7 0.94, 5.39 0.71 C6.09 0.47, 5.94 -0.03, 6.07 -0.05" stroke="#1e1e1e" stroke-width="1" fill="none"></path></g></g><g clip-path="url(#a1VFgBlM4g1uiYIYXMKWL)"><g stroke-linecap="round" transform="translate(120.00000000000034 165.64527306189893) rotate(0 6.923076923076962 6.923076923076906)"><path d="M7.93 0.17 C9.29 0.43, 10.92 1.74, 11.84 2.9 C12.77 4.06, 13.41 5.64, 13.46 7.12 C13.5 8.61, 13.04 10.63, 12.14 11.8 C11.23 12.97, 9.53 13.91, 8.04 14.14 C6.55 14.37, 4.53 13.89, 3.19 13.15 C1.86 12.42, 0.43 11.09, 0.03 9.74 C-0.36 8.39, 0.26 6.46, 0.82 5.05 C1.38 3.64, 2.22 2.08, 3.4 1.28 C4.59 0.48, 6.99 0.33, 7.93 0.23 C8.86 0.14, 8.95 0.61, 9.01 0.74 M6.2 0.14 C7.58 -0.12, 9.46 0.45, 10.75 1.16 C12.05 1.87, 13.51 3.07, 13.97 4.4 C14.44 5.72, 14.29 7.64, 13.54 9.11 C12.79 10.58, 10.91 12.49, 9.46 13.23 C8.01 13.96, 6.17 13.8, 4.85 13.51 C3.52 13.22, 2.35 12.62, 1.52 11.48 C0.69 10.35, -0.18 8.15, -0.15 6.71 C-0.11 5.27, 0.61 4, 1.75 2.86 C2.89 1.72, 5.82 0.32, 6.67 -0.11 C7.51 -0.54, 6.93 0.11, 6.81 0.26" stroke="#1e1e1e" stroke-width="1" fill="none"></path></g></g><g clip-path="url(#a1VFgBlM4g1uiYIYXMKWL)"><g stroke-linecap="round" transform="translate(121.53846153846177 151.79911921574467) rotate(0 5.384615384615415 5.384615384615358)"><path d="M4.38 0.48 C5.43 0.31, 6.94 0.47, 7.95 1.1 C8.96 1.74, 10.06 3.14, 10.44 4.28 C10.82 5.41, 10.71 6.89, 10.23 7.92 C9.74 8.94, 8.6 9.9, 7.52 10.42 C6.44 10.95, 4.77 11.28, 3.76 11.06 C2.75 10.83, 2.11 10.02, 1.47 9.08 C0.84 8.14, 0.04 6.64, -0.04 5.42 C-0.11 4.2, 0.12 2.61, 1.03 1.78 C1.93 0.94, 4.69 0.66, 5.39 0.41 C6.1 0.16, 5.36 0.24, 5.26 0.27 M5.56 0.01 C6.71 -0.13, 8.48 0.14, 9.38 0.81 C10.28 1.48, 10.98 2.79, 10.98 4.04 C10.99 5.29, 10.14 7.27, 9.41 8.32 C8.69 9.38, 7.59 9.93, 6.61 10.35 C5.63 10.77, 4.57 11.2, 3.55 10.83 C2.53 10.46, 1.08 9.11, 0.48 8.14 C-0.11 7.17, -0.39 6.18, -0.04 4.99 C0.31 3.8, 1.54 1.82, 2.58 1 C3.62 0.18, 5.75 0.22, 6.21 0.08 C6.67 -0.06, 5.35 0.12, 5.33 0.14" stroke="#1e1e1e" stroke-width="1" fill="none"></path></g></g><g clip-path="url(#a1VFgBlM4g1uiYIYXMKWL)"><g stroke-linecap="round" transform="translate(118.46153846153845 154.10681152343705) rotate(0 5.384615384615415 5.384615384615358)"><path d="M5.17 0.22 C6.31 0.19, 7.97 1.02, 8.88 1.82 C9.78 2.62, 10.48 3.92, 10.61 5.03 C10.75 6.13, 10.33 7.47, 9.67 8.46 C9.02 9.44, 7.65 10.53, 6.67 10.93 C5.69 11.33, 4.8 11.3, 3.78 10.86 C2.77 10.41, 1.28 9.35, 0.59 8.26 C-0.09 7.18, -0.64 5.48, -0.32 4.36 C-0.01 3.24, 1.47 2.24, 2.48 1.54 C3.5 0.84, 5.25 0.4, 5.77 0.17 C6.29 -0.06, 5.63 0.11, 5.62 0.18 M5.97 -0.56 C7.11 -0.69, 8.55 -0.08, 9.24 0.8 C9.94 1.68, 10.12 3.52, 10.17 4.73 C10.21 5.94, 9.99 7.04, 9.5 8.08 C9.01 9.11, 8.27 10.52, 7.22 10.94 C6.18 11.36, 4.34 10.98, 3.22 10.59 C2.1 10.2, 0.92 9.71, 0.49 8.63 C0.06 7.55, 0.27 5.36, 0.65 4.12 C1.02 2.89, 1.94 1.91, 2.72 1.23 C3.5 0.55, 4.78 0.28, 5.34 0.04 C5.91 -0.2, 5.98 -0.21, 6.11 -0.22" stroke="#1e1e1e" stroke-width="1" fill="none"></path></g></g><g clip-path="url(#a1VFgBlM4g1uiYIYXMKWL)"><g stroke-linecap="round" transform="translate(121.53846153846177 155.64527306189893) rotate(0 5.384615384615415 5.384615384615358)"><path d="M6.45 0.57 C7.59 0.77, 8.89 1.63, 9.56 2.51 C10.23 3.39, 10.58 4.7, 10.48 5.85 C10.38 7.01, 9.63 8.57, 8.96 9.46 C8.29 10.35, 7.57 11.07, 6.49 11.2 C5.4 11.34, 3.55 10.95, 2.44 10.26 C1.33 9.58, 0.08 8.17, -0.19 7.08 C-0.46 5.99, 0.31 4.76, 0.83 3.71 C1.36 2.66, 2.03 1.35, 2.96 0.76 C3.9 0.18, 5.81 0.28, 6.45 0.21 C7.1 0.13, 6.81 0.25, 6.84 0.33 M5.67 -0.57 C6.61 -0.53, 7.55 0.56, 8.31 1.38 C9.07 2.19, 9.91 3.13, 10.23 4.32 C10.54 5.51, 10.73 7.48, 10.2 8.53 C9.67 9.59, 8.19 10.22, 7.05 10.66 C5.91 11.09, 4.34 11.6, 3.38 11.14 C2.41 10.68, 1.68 9.01, 1.24 7.91 C0.8 6.8, 0.67 5.61, 0.75 4.51 C0.82 3.41, 0.85 2.09, 1.72 1.28 C2.59 0.48, 5.25 -0.04, 5.96 -0.33 C6.68 -0.61, 6.21 -0.49, 6.01 -0.43" stroke="#1e1e1e" stroke-width="1" fill="none"></path></g></g><g clip-path="url(#a1VFgBlM4g1uiYIYXMKWL)"><g transform="translate(109.46692246657165 51.17030686598491) rotate(0 36.61000061035156 12.5)"><text x="0" y="17.52" font-family="Virgil, Segoe UI Emoji" font-size="20px" fill="#1e1e1e" text-anchor="start" style="white-space: pre;" direction="ltr" dominant-baseline="alphabetic">RT = x</text></g></g><g clip-path="url(#a1VFgBlM4g1uiYIYXMKWL)"><g stroke-linecap="round"><g transform="translate(240.0000000000001 147.0027465905514) rotate(0 11.153846153846075 -0.4563368942560828)"><path d="M0 0 C3.72 -0.15, 18.59 -0.76, 22.31 -0.91 M0 0 C3.72 -0.15, 18.59 -0.76, 22.31 -0.91" stroke="#e03131" stroke-width="2" fill="none"></path></g><g transform="translate(240.0000000000001 147.0027465905514) rotate(0 11.153846153846075 -0.4563368942560828)"><path d="M11.98 3.33 C15.99 1.69, 19.99 0.04, 22.31 -0.91 M11.98 3.33 C14.5 2.3, 17.01 1.26, 22.31 -0.91" stroke="#e03131" stroke-width="2" fill="none"></path></g><g transform="translate(240.0000000000001 147.0027465905514) rotate(0 11.153846153846075 -0.4563368942560828)"><path d="M11.67 -4.3 C15.8 -2.99, 19.92 -1.67, 22.31 -0.91 M11.67 -4.3 C14.26 -3.47, 16.85 -2.65, 22.31 -0.91" stroke="#e03131" stroke-width="2" fill="none"></path></g></g><mask></mask></g><g clip-path="url(#a1VFgBlM4g1uiYIYXMKWL)"><g stroke-linecap="round" transform="translate(107.69230769230762 128.08086688701906) rotate(0 17.692307692307736 18.461538461538453)"><path d="M35.38 18.46 C35.38 19.53, 35.29 20.61, 35.12 21.67 C34.94 22.72, 34.67 23.77, 34.32 24.78 C33.97 25.78, 33.53 26.77, 33.01 27.69 C32.5 28.62, 31.9 29.51, 31.25 30.33 C30.59 31.15, 29.85 31.92, 29.06 32.6 C28.28 33.29, 27.43 33.92, 26.54 34.45 C25.65 34.98, 24.71 35.44, 23.74 35.81 C22.78 36.18, 21.77 36.46, 20.76 36.64 C19.76 36.83, 18.72 36.92, 17.69 36.92 C16.67 36.92, 15.63 36.83, 14.62 36.64 C13.61 36.46, 12.6 36.18, 11.64 35.81 C10.68 35.44, 9.73 34.98, 8.85 34.45 C7.96 33.92, 7.1 33.29, 6.32 32.6 C5.54 31.92, 4.8 31.15, 4.14 30.33 C3.48 29.51, 2.88 28.62, 2.37 27.69 C1.86 26.77, 1.42 25.78, 1.07 24.78 C0.72 23.77, 0.45 22.72, 0.27 21.67 C0.09 20.61, 0 19.53, 0 18.46 C0 17.39, 0.09 16.31, 0.27 15.26 C0.45 14.2, 0.72 13.15, 1.07 12.15 C1.42 11.14, 1.86 10.16, 2.37 9.23 C2.88 8.31, 3.48 7.41, 4.14 6.59 C4.8 5.78, 5.54 5.01, 6.32 4.32 C7.1 3.63, 7.96 3.01, 8.85 2.47 C9.73 1.94, 10.68 1.48, 11.64 1.11 C12.6 0.75, 13.61 0.47, 14.62 0.28 C15.63 0.09, 16.67 0, 17.69 0 C18.72 0, 19.76 0.09, 20.76 0.28 C21.77 0.47, 22.78 0.75, 23.74 1.11 C24.71 1.48, 25.65 1.94, 26.54 2.47 C27.43 3.01, 28.28 3.63, 29.06 4.32 C29.85 5.01, 30.59 5.78, 31.25 6.59 C31.9 7.41, 32.5 8.31, 33.01 9.23 C33.53 10.16, 33.97 11.14, 34.32 12.15 C34.67 13.15, 34.94 14.2, 35.12 15.26 C35.29 16.31, 35.34 17.93, 35.38 18.46 C35.43 19, 35.43 17.93, 35.38 18.46" stroke="#e03131" stroke-width="1.5" fill="none" stroke-dasharray="8 9"></path></g></g><g clip-path="url(#a1VFgBlM4g1uiYIYXMKWL)"><g stroke-linecap="round" transform="translate(109.23076923076928 137.3116361177881) rotate(0 17.692307692307736 18.461538461538453)"><path d="M35.38 18.46 C35.38 19.53, 35.29 20.61, 35.12 21.67 C34.94 22.72, 34.67 23.77, 34.32 24.78 C33.97 25.78, 33.53 26.77, 33.01 27.69 C32.5 28.62, 31.9 29.51, 31.25 30.33 C30.59 31.15, 29.85 31.92, 29.06 32.6 C28.28 33.29, 27.43 33.92, 26.54 34.45 C25.65 34.98, 24.71 35.44, 23.74 35.81 C22.78 36.18, 21.77 36.46, 20.76 36.64 C19.76 36.83, 18.72 36.92, 17.69 36.92 C16.67 36.92, 15.63 36.83, 14.62 36.64 C13.61 36.46, 12.6 36.18, 11.64 35.81 C10.68 35.44, 9.73 34.98, 8.85 34.45 C7.96 33.92, 7.1 33.29, 6.32 32.6 C5.54 31.92, 4.8 31.15, 4.14 30.33 C3.48 29.51, 2.88 28.62, 2.37 27.69 C1.86 26.77, 1.42 25.78, 1.07 24.78 C0.72 23.77, 0.45 22.72, 0.27 21.67 C0.09 20.61, 0 19.53, 0 18.46 C0 17.39, 0.09 16.31, 0.27 15.26 C0.45 14.2, 0.72 13.15, 1.07 12.15 C1.42 11.14, 1.86 10.16, 2.37 9.23 C2.88 8.31, 3.48 7.41, 4.14 6.59 C4.8 5.78, 5.54 5.01, 6.32 4.32 C7.1 3.63, 7.96 3.01, 8.85 2.47 C9.73 1.94, 10.68 1.48, 11.64 1.11 C12.6 0.75, 13.61 0.47, 14.62 0.28 C15.63 0.09, 16.67 0, 17.69 0 C18.72 0, 19.76 0.09, 20.76 0.28 C21.77 0.47, 22.78 0.75, 23.74 1.11 C24.71 1.48, 25.65 1.94, 26.54 2.47 C27.43 3.01, 28.28 3.63, 29.06 4.32 C29.85 5.01, 30.59 5.78, 31.25 6.59 C31.9 7.41, 32.5 8.31, 33.01 9.23 C33.53 10.16, 33.97 11.14, 34.32 12.15 C34.67 13.15, 34.94 14.2, 35.12 15.26 C35.29 16.31, 35.34 17.93, 35.38 18.46 C35.43 19, 35.43 17.93, 35.38 18.46" stroke="#e03131" stroke-width="1.5" fill="none" stroke-dasharray="8 9"></path></g></g><g clip-path="url(#a1VFgBlM4g1uiYIYXMKWL)"><g stroke-linecap="round" transform="translate(111.53846153846155 150.38855919471166) rotate(0 17.692307692307736 18.461538461538453)"><path d="M35.38 18.46 C35.38 19.53, 35.29 20.61, 35.12 21.67 C34.94 22.72, 34.67 23.77, 34.32 24.78 C33.97 25.78, 33.53 26.77, 33.01 27.69 C32.5 28.62, 31.9 29.51, 31.25 30.33 C30.59 31.15, 29.85 31.92, 29.06 32.6 C28.28 33.29, 27.43 33.92, 26.54 34.45 C25.65 34.98, 24.71 35.44, 23.74 35.81 C22.78 36.18, 21.77 36.46, 20.76 36.64 C19.76 36.83, 18.72 36.92, 17.69 36.92 C16.67 36.92, 15.63 36.83, 14.62 36.64 C13.61 36.46, 12.6 36.18, 11.64 35.81 C10.68 35.44, 9.73 34.98, 8.85 34.45 C7.96 33.92, 7.1 33.29, 6.32 32.6 C5.54 31.92, 4.8 31.15, 4.14 30.33 C3.48 29.51, 2.88 28.62, 2.37 27.69 C1.86 26.77, 1.42 25.78, 1.07 24.78 C0.72 23.77, 0.45 22.72, 0.27 21.67 C0.09 20.61, 0 19.53, 0 18.46 C0 17.39, 0.09 16.31, 0.27 15.26 C0.45 14.2, 0.72 13.15, 1.07 12.15 C1.42 11.14, 1.86 10.16, 2.37 9.23 C2.88 8.31, 3.48 7.41, 4.14 6.59 C4.8 5.78, 5.54 5.01, 6.32 4.32 C7.1 3.63, 7.96 3.01, 8.85 2.47 C9.73 1.94, 10.68 1.48, 11.64 1.11 C12.6 0.75, 13.61 0.47, 14.62 0.28 C15.63 0.09, 16.67 0, 17.69 0 C18.72 0, 19.76 0.09, 20.76 0.28 C21.77 0.47, 22.78 0.75, 23.74 1.11 C24.71 1.48, 25.65 1.94, 26.54 2.47 C27.43 3.01, 28.28 3.63, 29.06 4.32 C29.85 5.01, 30.59 5.78, 31.25 6.59 C31.9 7.41, 32.5 8.31, 33.01 9.23 C33.53 10.16, 33.97 11.14, 34.32 12.15 C34.67 13.15, 34.94 14.2, 35.12 15.26 C35.29 16.31, 35.34 17.93, 35.38 18.46 C35.43 19, 35.43 17.93, 35.38 18.46" stroke="#e03131" stroke-width="1.5" fill="none" stroke-dasharray="8 9"></path></g></g><g clip-path="url(#a1VFgBlM4g1uiYIYXMKWL)"><g stroke-linecap="round" transform="translate(109.99999999999977 161.9270207331731) rotate(0 17.692307692307736 18.461538461538453)"><path d="M35.38 18.46 C35.38 19.53, 35.29 20.61, 35.12 21.67 C34.94 22.72, 34.67 23.77, 34.32 24.78 C33.97 25.78, 33.53 26.77, 33.01 27.69 C32.5 28.62, 31.9 29.51, 31.25 30.33 C30.59 31.15, 29.85 31.92, 29.06 32.6 C28.28 33.29, 27.43 33.92, 26.54 34.45 C25.65 34.98, 24.71 35.44, 23.74 35.81 C22.78 36.18, 21.77 36.46, 20.76 36.64 C19.76 36.83, 18.72 36.92, 17.69 36.92 C16.67 36.92, 15.63 36.83, 14.62 36.64 C13.61 36.46, 12.6 36.18, 11.64 35.81 C10.68 35.44, 9.73 34.98, 8.85 34.45 C7.96 33.92, 7.1 33.29, 6.32 32.6 C5.54 31.92, 4.8 31.15, 4.14 30.33 C3.48 29.51, 2.88 28.62, 2.37 27.69 C1.86 26.77, 1.42 25.78, 1.07 24.78 C0.72 23.77, 0.45 22.72, 0.27 21.67 C0.09 20.61, 0 19.53, 0 18.46 C0 17.39, 0.09 16.31, 0.27 15.26 C0.45 14.2, 0.72 13.15, 1.07 12.15 C1.42 11.14, 1.86 10.16, 2.37 9.23 C2.88 8.31, 3.48 7.41, 4.14 6.59 C4.8 5.78, 5.54 5.01, 6.32 4.32 C7.1 3.63, 7.96 3.01, 8.85 2.47 C9.73 1.94, 10.68 1.48, 11.64 1.11 C12.6 0.75, 13.61 0.47, 14.62 0.28 C15.63 0.09, 16.67 0, 17.69 0 C18.72 0, 19.76 0.09, 20.76 0.28 C21.77 0.47, 22.78 0.75, 23.74 1.11 C24.71 1.48, 25.65 1.94, 26.54 2.47 C27.43 3.01, 28.28 3.63, 29.06 4.32 C29.85 5.01, 30.59 5.78, 31.25 6.59 C31.9 7.41, 32.5 8.31, 33.01 9.23 C33.53 10.16, 33.97 11.14, 34.32 12.15 C34.67 13.15, 34.94 14.2, 35.12 15.26 C35.29 16.31, 35.34 17.93, 35.38 18.46 C35.43 19, 35.43 17.93, 35.38 18.46" stroke="#e03131" stroke-width="1.5" fill="none" stroke-dasharray="8 9"></path></g></g><g clip-path="url(#a1VFgBlM4g1uiYIYXMKWL)"><g stroke-linecap="round" transform="translate(173.8461538461538 85.77317457932713) rotate(0 17.692307692307736 18.461538461538453)"><path d="M35.38 18.46 C35.38 19.53, 35.29 20.61, 35.12 21.67 C34.94 22.72, 34.67 23.77, 34.32 24.78 C33.97 25.78, 33.53 26.77, 33.01 27.69 C32.5 28.62, 31.9 29.51, 31.25 30.33 C30.59 31.15, 29.85 31.92, 29.06 32.6 C28.28 33.29, 27.43 33.92, 26.54 34.45 C25.65 34.98, 24.71 35.44, 23.74 35.81 C22.78 36.18, 21.77 36.46, 20.76 36.64 C19.76 36.83, 18.72 36.92, 17.69 36.92 C16.67 36.92, 15.63 36.83, 14.62 36.64 C13.61 36.46, 12.6 36.18, 11.64 35.81 C10.68 35.44, 9.73 34.98, 8.85 34.45 C7.96 33.92, 7.1 33.29, 6.32 32.6 C5.54 31.92, 4.8 31.15, 4.14 30.33 C3.48 29.51, 2.88 28.62, 2.37 27.69 C1.86 26.77, 1.42 25.78, 1.07 24.78 C0.72 23.77, 0.45 22.72, 0.27 21.67 C0.09 20.61, 0 19.53, 0 18.46 C0 17.39, 0.09 16.31, 0.27 15.26 C0.45 14.2, 0.72 13.15, 1.07 12.15 C1.42 11.14, 1.86 10.16, 2.37 9.23 C2.88 8.31, 3.48 7.41, 4.14 6.59 C4.8 5.78, 5.54 5.01, 6.32 4.32 C7.1 3.63, 7.96 3.01, 8.85 2.47 C9.73 1.94, 10.68 1.48, 11.64 1.11 C12.6 0.75, 13.61 0.47, 14.62 0.28 C15.63 0.09, 16.67 0, 17.69 0 C18.72 0, 19.76 0.09, 20.76 0.28 C21.77 0.47, 22.78 0.75, 23.74 1.11 C24.71 1.48, 25.65 1.94, 26.54 2.47 C27.43 3.01, 28.28 3.63, 29.06 4.32 C29.85 5.01, 30.59 5.78, 31.25 6.59 C31.9 7.41, 32.5 8.31, 33.01 9.23 C33.53 10.16, 33.97 11.14, 34.32 12.15 C34.67 13.15, 34.94 14.2, 35.12 15.26 C35.29 16.31, 35.34 17.93, 35.38 18.46 C35.43 19, 35.43 17.93, 35.38 18.46" stroke="#e03131" stroke-width="1.5" fill="none" stroke-dasharray="8 9"></path></g></g><g clip-path="url(#a1VFgBlM4g1uiYIYXMKWL)"><g stroke-linecap="round" transform="translate(286.0384615384613 76.29911921574535) rotate(0 65.5 65.5)"><path d="M-3.51 0.66 C55.15 1.33, 104.05 -0.52, 129.18 0.38 M0.03 0.03 C41.99 -1.83, 82.49 -1.86, 129.53 0.29 M133.35 -0.85 C131.59 30.42, 134.23 65.27, 130.17 134.52 M132.49 -0.87 C131.86 39.25, 128.49 80.06, 131.89 131.68 M133.36 133.04 C93 126.93, 47.67 126.35, -1.82 129.47 M132.25 132.51 C104.25 131.79, 80.33 133.46, 0 131.18 M2.08 132.49 C-1.01 96.45, 0.72 63.5, -0.21 -3.38 M-0.17 131.19 C-0.13 104.9, -0.97 76.75, -0.72 1.82" stroke="#1e1e1e" stroke-width="1" fill="none"></path></g></g><g clip-path="url(#a1VFgBlM4g1uiYIYXMKWL)"><g stroke-linecap="round" transform="translate(382.1538461538456 97.71855280949535) rotate(0 5.384615384615415 5.384615384615358)"><path d="M6.2 0.15 C7.29 0.28, 8.87 1.16, 9.64 2.05 C10.41 2.94, 10.87 4.31, 10.83 5.5 C10.8 6.7, 10.28 8.31, 9.44 9.2 C8.61 10.1, 7.04 10.81, 5.84 10.88 C4.63 10.95, 3.13 10.3, 2.22 9.62 C1.3 8.95, 0.68 7.83, 0.36 6.81 C0.03 5.8, -0.19 4.59, 0.27 3.54 C0.72 2.5, 1.98 1.14, 3.08 0.56 C4.19 -0.02, 6.15 0.05, 6.89 0.08 C7.63 0.1, 7.57 0.55, 7.5 0.73 M6.08 -0.32 C7.32 -0.46, 8.9 0.08, 9.56 0.82 C10.22 1.56, 9.93 2.83, 10.05 4.11 C10.18 5.38, 10.78 7.38, 10.31 8.45 C9.84 9.53, 8.44 10.16, 7.23 10.55 C6.01 10.95, 4.07 11.16, 3.04 10.84 C2.01 10.52, 1.61 9.72, 1.04 8.63 C0.46 7.54, -0.47 5.59, -0.41 4.29 C-0.35 2.99, 0.46 1.67, 1.41 0.83 C2.35 -0.01, 4.6 -0.66, 5.24 -0.74 C5.88 -0.83, 5.11 0.02, 5.23 0.33" stroke="#1e1e1e" stroke-width="1" fill="none"></path></g></g><g clip-path="url(#a1VFgBlM4g1uiYIYXMKWL)"><g stroke-linecap="round" transform="translate(310.7692307692304 148.72219613882248) rotate(0 15.000000000000057 14.9999999999999)"><path d="M16.26 0.09 C19.36 0.13, 23.31 2.03, 25.59 4.32 C27.87 6.62, 29.71 10.63, 29.94 13.86 C30.17 17.08, 28.87 21.15, 26.98 23.69 C25.09 26.23, 21.63 28.32, 18.61 29.09 C15.59 29.87, 11.71 29.59, 8.83 28.33 C5.96 27.08, 2.7 24.42, 1.35 21.55 C0.01 18.68, -0.07 14.27, 0.78 11.12 C1.62 7.98, 3.66 4.45, 6.44 2.68 C9.22 0.9, 15.6 0.77, 17.46 0.49 C19.32 0.21, 17.72 0.83, 17.62 0.99 M15.77 -0.53 C18.62 -0.72, 21.72 0.91, 24.11 3.13 C26.5 5.36, 29.48 9.55, 30.13 12.81 C30.79 16.08, 29.79 19.91, 28.04 22.7 C26.29 25.5, 22.59 28.43, 19.6 29.59 C16.61 30.76, 13.13 30.93, 10.1 29.72 C7.07 28.51, 3.15 25.31, 1.41 22.34 C-0.34 19.37, -1 15.17, -0.37 11.89 C0.26 8.61, 2.66 4.61, 5.2 2.66 C7.74 0.72, 13.14 0.52, 14.87 0.22 C16.61 -0.08, 15.61 0.65, 15.63 0.87" stroke="#1e1e1e" stroke-width="1" fill="none"></path></g></g><g clip-path="url(#a1VFgBlM4g1uiYIYXMKWL)"><g transform="translate(305.6207686204174 48.86261455829322) rotate(0 36.61000061035156 12.5)"><text x="0" y="17.52" font-family="Virgil, Segoe UI Emoji" font-size="20px" fill="#1e1e1e" text-anchor="start" style="white-space: pre;" direction="ltr" dominant-baseline="alphabetic">RT = x</text></g></g><g clip-path="url(#a1VFgBlM4g1uiYIYXMKWL)"><g stroke-linecap="round"><g transform="translate(100.19940492642388 220.38855919471143) rotate(0 49.515682152172644 0)"><path d="M0.12 0.15 C16.57 0.26, 82.64 0.18, 99.13 0.15 M-1.28 -0.82 C14.99 -0.44, 81.63 1.41, 98.23 1.77" stroke="#343a40" stroke-width="1" fill="none"></path></g><g transform="translate(100.19940492642388 220.38855919471143) rotate(0 49.515682152172644 0)"><path d="M74.53 9.73 C82.67 7.23, 90.56 4.45, 98.23 1.77 M74.53 9.73 C81.98 6.75, 88.03 5.26, 98.23 1.77" stroke="#343a40" stroke-width="1" fill="none"></path></g><g transform="translate(100.19940492642388 220.38855919471143) rotate(0 49.515682152172644 0)"><path d="M74.96 -7.37 C82.88 -4.2, 90.62 -1.29, 98.23 1.77 M74.96 -7.37 C82.38 -5.2, 88.3 -1.54, 98.23 1.77" stroke="#343a40" stroke-width="1" fill="none"></path></g></g><mask></mask></g><g clip-path="url(#a1VFgBlM4g1uiYIYXMKWL)"><g transform="translate(225.58402031103935 240.3885591947112) rotate(0 20.6299991607666 12.5)"><text x="0" y="17.52" font-family="Virgil, Segoe UI Emoji" font-size="20px" fill="#343a40" text-anchor="start" style="white-space: pre;" direction="ltr" dominant-baseline="alphabetic">M/Z</text></g></g><g clip-path="url(#a1VFgBlM4g1uiYIYXMKWL)"><g stroke-linecap="round"><g transform="translate(69.43017415719316 191.54240534855785) rotate(0 -0.3846153846154152 -47.307692307692264)"><path d="M0 0 C-0.13 -15.77, -0.64 -78.85, -0.77 -94.62 M0 0 C-0.13 -15.77, -0.64 -78.85, -0.77 -94.62" stroke="#343a40" stroke-width="1" fill="none"></path></g><g transform="translate(69.43017415719316 191.54240534855785) rotate(0 -0.3846153846154152 -47.307692307692264)"><path d="M7.97 -71.19 C5.28 -78.41, 2.59 -85.62, -0.77 -94.62 M7.97 -71.19 C6.02 -76.44, 4.06 -81.68, -0.77 -94.62" stroke="#343a40" stroke-width="1" fill="none"></path></g><g transform="translate(69.43017415719316 191.54240534855785) rotate(0 -0.3846153846154152 -47.307692307692264)"><path d="M-9.13 -71.05 C-6.55 -78.31, -3.98 -85.57, -0.77 -94.62 M-9.13 -71.05 C-7.26 -76.33, -5.39 -81.6, -0.77 -94.62" stroke="#343a40" stroke-width="1" fill="none"></path></g></g><mask></mask></g><g clip-path="url(#a1VFgBlM4g1uiYIYXMKWL)"><g transform="translate(5.584020311039353 134.23471304086547) rotate(270.2791136336891 35.62999725341797 12.5)"><text x="0" y="17.52" font-family="Virgil, Segoe UI Emoji" font-size="20px" fill="#343a40" text-anchor="start" style="white-space: pre;" direction="ltr" dominant-baseline="alphabetic">Mobility</text></g></g><g clip-path="url(#a1VFgBlM4g1uiYIYXMKWL)"><g stroke-linecap="round"><g transform="translate(303.8461538461538 221.6360631135219) rotate(0 46.53846153846155 0)"><path d="M0.43 -0.91 C15.69 -0.74, 76.88 0.06, 92.2 0.17 M-0.81 1.22 C14.77 1.7, 78.51 1.84, 94.45 1.8" stroke="#343a40" stroke-width="1" fill="none"></path></g><g transform="translate(303.8461538461538 221.6360631135219) rotate(0 46.53846153846155 0)"><path d="M70.95 10.33 C77.83 5.76, 87.98 2.96, 94.45 1.8 M70.95 10.33 C77.31 8.08, 83.9 6.35, 94.45 1.8" stroke="#343a40" stroke-width="1" fill="none"></path></g><g transform="translate(303.8461538461538 221.6360631135219) rotate(0 46.53846153846155 0)"><path d="M70.96 -6.77 C77.71 -5.28, 87.85 -2, 94.45 1.8 M70.96 -6.77 C77.35 -4.23, 83.95 -1.16, 94.45 1.8" stroke="#343a40" stroke-width="1" fill="none"></path></g></g><mask></mask></g></svg>