<svg version="1.1" xmlns="http://www.w3.org/2000/svg" viewBox="0 0 893.9230769230771 309.23076923076906" width="1787.8461538461543" height="618.4615384615381">
  <!-- svg-source:excalidraw -->
  
  <defs>
    <style class="style-fonts">
      @font-face {
        font-family: "Virgil";
        src: url("https://excalidraw.com/Virgil.woff2");
      }
      @font-face {
        font-family: "Cascadia";
        src: url("https://excalidraw.com/Cascadia.woff2");
      }
      @font-face {
        font-family: "Assistant";
        src: url("https://app.excalidraw.com//dist/excalidraw-assets/Assistant-Regular.woff2");
      }
    </style>
    <clipPath id="xRDo_cyyvz5rKDkyXY6E_">
            <rect transform="translate(0 0) rotate(0 446.96153846153857 154.61538461538453)" width="893.923076923077" height="309.23076923076906">
          </rect>
        </clipPath>
  </defs>
  <rect x="0" y="0" width="893.9230769230771" height="309.23076923076906" fill="#ffffff"></rect><g clip-path="url(#xRDo_cyyvz5rKDkyXY6E_)"><g stroke-linecap="round" transform="translate(213.03846153846143 76.29911921574558) rotate(0 65.5 65.5)"><path d="M-0.79 0.85 C32.05 0.77, 60.51 0.81, 134.75 2.83 M-0.58 0.09 C38.08 -1.14, 74.79 -1.7, 129.25 -1.28 M131.34 -1.98 C134.26 47.16, 135.51 87.47, 130.91 127.65 M130.23 0.59 C131.24 34.85, 129.55 66.7, 132.93 132.69 M128.9 127.33 C93.76 131.74, 49.97 131.23, -0.65 134.57 M130.31 132.98 C92.23 128.94, 52.77 130.7, -1.87 132.85 M1.68 130.24 C-0.93 99.97, -2.67 62.43, -2.14 3.27 M-0.65 129.4 C2.07 99.98, 2.5 70.07, -0.12 0.87" stroke="#1e1e1e" stroke-width="1" fill="none"></path></g></g><g clip-path="url(#xRDo_cyyvz5rKDkyXY6E_)"><g stroke-linecap="round" transform="translate(305.15384615384573 96.71855280949558) rotate(0 7.884615384615415 7.88461538461533)"><path d="M7.94 0.36 C9.49 0.27, 11.24 1.09, 12.52 2.03 C13.8 2.96, 15.22 4.33, 15.62 5.96 C16.02 7.6, 15.74 10.24, 14.93 11.83 C14.12 13.43, 12.37 15.02, 10.75 15.54 C9.13 16.07, 6.86 15.51, 5.23 14.99 C3.59 14.46, 1.79 13.73, 0.95 12.4 C0.12 11.08, -0.04 8.77, 0.23 7.02 C0.49 5.26, 1.22 3, 2.55 1.87 C3.88 0.75, 7.17 0.6, 8.21 0.26 C9.25 -0.09, 8.85 -0.19, 8.8 -0.17 M6.7 0.27 C8.41 0.21, 11.27 0.98, 12.7 1.87 C14.13 2.77, 14.75 4.02, 15.28 5.65 C15.8 7.28, 16.49 10.1, 15.84 11.66 C15.2 13.22, 13.07 14.42, 11.41 15.01 C9.74 15.59, 7.59 15.5, 5.83 15.16 C4.07 14.82, 1.78 14.33, 0.86 12.97 C-0.06 11.6, 0.05 8.73, 0.29 6.96 C0.54 5.18, 1.12 3.49, 2.35 2.34 C3.58 1.18, 6.99 0.47, 7.66 0.01 C8.33 -0.45, 6.52 -0.7, 6.38 -0.44" stroke="#1e1e1e" stroke-width="1" fill="none"></path></g></g><g clip-path="url(#xRDo_cyyvz5rKDkyXY6E_)"><g stroke-linecap="round" transform="translate(242.7692307692305 153.7221961388227) rotate(0 9.499999999999943 9.49999999999983)"><path d="M8.92 0.45 C10.78 0.15, 13.64 0.56, 15.29 1.78 C16.93 3, 18.37 5.68, 18.78 7.76 C19.19 9.83, 18.73 12.56, 17.74 14.23 C16.75 15.91, 14.73 17.05, 12.84 17.81 C10.94 18.58, 8.24 19.31, 6.38 18.8 C4.52 18.29, 2.74 16.53, 1.69 14.75 C0.65 12.96, -0.16 10.07, 0.12 8.07 C0.39 6.08, 1.71 4.2, 3.33 2.79 C4.96 1.39, 8.79 0.16, 9.87 -0.35 C10.95 -0.85, 9.91 -0.41, 9.8 -0.22 M7.64 0.86 C9.5 0.23, 11.59 0.05, 13.46 0.95 C15.34 1.85, 18.03 4.37, 18.89 6.24 C19.75 8.1, 19.35 10.36, 18.64 12.15 C17.93 13.94, 16.42 15.76, 14.63 16.96 C12.83 18.16, 9.8 19.56, 7.85 19.34 C5.91 19.13, 4.24 17.22, 2.97 15.68 C1.7 14.13, 0.29 12.04, 0.21 10.08 C0.13 8.11, 1.41 5.64, 2.46 3.9 C3.52 2.17, 5.79 0.09, 6.53 -0.35 C7.28 -0.8, 6.82 0.94, 6.96 1.22" stroke="#1e1e1e" stroke-width="1" fill="none"></path></g></g><g clip-path="url(#xRDo_cyyvz5rKDkyXY6E_)"><g transform="translate(232.6207686204175 48.862614558293444) rotate(0 45.56999969482422 12.5)"><text x="0" y="17.52" font-family="Virgil, Segoe UI Emoji" font-size="20px" fill="#1e1e1e" text-anchor="start" style="white-space: pre;" direction="ltr" dominant-baseline="alphabetic">RT = x+1</text></g></g><g clip-path="url(#xRDo_cyyvz5rKDkyXY6E_)"><g stroke-linecap="round"><g transform="translate(83.199404926424 220.3885591947119) rotate(0 49.515682152172644 0)"><path d="M0.85 -0.25 C17.57 -0.42, 83.78 0.08, 100.09 0.13 M-0.16 -1.42 C16.51 -0.86, 83.38 1.26, 99.69 1.73" stroke="#343a40" stroke-width="1" fill="none"></path></g><g transform="translate(83.199404926424 220.3885591947119) rotate(0 49.515682152172644 0)"><path d="M75.95 9.56 C82.11 8.96, 89.38 4.43, 99.69 1.73 M75.95 9.56 C83.93 6.57, 89.47 4.25, 99.69 1.73" stroke="#343a40" stroke-width="1" fill="none"></path></g><g transform="translate(83.199404926424 220.3885591947119) rotate(0 49.515682152172644 0)"><path d="M76.47 -7.53 C82.65 -3.35, 89.77 -3.09, 99.69 1.73 M76.47 -7.53 C84.42 -5.33, 89.8 -2.44, 99.69 1.73" stroke="#343a40" stroke-width="1" fill="none"></path></g></g><mask></mask></g><g clip-path="url(#xRDo_cyyvz5rKDkyXY6E_)"><g transform="translate(208.58402031103947 240.38855919471143) rotate(0 20.6299991607666 12.5)"><text x="0" y="17.52" font-family="Virgil, Segoe UI Emoji" font-size="20px" fill="#343a40" text-anchor="start" style="white-space: pre;" direction="ltr" dominant-baseline="alphabetic">M/Z</text></g></g><g clip-path="url(#xRDo_cyyvz5rKDkyXY6E_)"><g stroke-linecap="round"><g transform="translate(52.43017415719328 191.54240534855808) rotate(0 -0.3846153846154152 -47.307692307692264)"><path d="M0 0 C-0.13 -15.77, -0.64 -78.85, -0.77 -94.62 M0 0 C-0.13 -15.77, -0.64 -78.85, -0.77 -94.62" stroke="#343a40" stroke-width="1" fill="none"></path></g><g transform="translate(52.43017415719328 191.54240534855808) rotate(0 -0.3846153846154152 -47.307692307692264)"><path d="M7.97 -71.19 C4.58 -80.28, 1.19 -89.37, -0.77 -94.62 M7.97 -71.19 C5.97 -76.55, 3.97 -81.91, -0.77 -94.62" stroke="#343a40" stroke-width="1" fill="none"></path></g><g transform="translate(52.43017415719328 191.54240534855808) rotate(0 -0.3846153846154152 -47.307692307692264)"><path d="M-9.13 -71.05 C-5.88 -80.2, -2.64 -89.34, -0.77 -94.62 M-9.13 -71.05 C-7.22 -76.44, -5.3 -81.83, -0.77 -94.62" stroke="#343a40" stroke-width="1" fill="none"></path></g></g><mask></mask></g><g clip-path="url(#xRDo_cyyvz5rKDkyXY6E_)"><g transform="translate(-11.415979688960533 134.2347130408657) rotate(270.2791136336891 35.62999725341797 12.5)"><text x="0" y="17.52" font-family="Virgil, Segoe UI Emoji" font-size="20px" fill="#343a40" text-anchor="start" style="white-space: pre;" direction="ltr" dominant-baseline="alphabetic">Mobility</text></g></g><g clip-path="url(#xRDo_cyyvz5rKDkyXY6E_)"><g stroke-linecap="round"><g transform="translate(230.8461538461538 221.63606311352214) rotate(0 46.53846153846155 0)"><path d="M0.97 -0.86 C16.16 -0.9, 76.58 -0.98, 92.02 -0.77 M0.02 1.31 C15.49 1.45, 78.67 0.87, 94.18 0.36" stroke="#343a40" stroke-width="1" fill="none"></path></g><g transform="translate(230.8461538461538 221.63606311352214) rotate(0 46.53846153846155 0)"><path d="M70.86 9.35 C78.21 4.04, 87.09 3.32, 94.18 0.36 M70.86 9.35 C78.14 6.92, 86.94 4.23, 94.18 0.36" stroke="#343a40" stroke-width="1" fill="none"></path></g><g transform="translate(230.8461538461538 221.63606311352214) rotate(0 46.53846153846155 0)"><path d="M70.54 -7.75 C77.93 -6.65, 86.93 -0.97, 94.18 0.36 M70.54 -7.75 C77.96 -4.46, 86.87 -1.44, 94.18 0.36" stroke="#343a40" stroke-width="1" fill="none"></path></g></g><mask></mask></g><g clip-path="url(#xRDo_cyyvz5rKDkyXY6E_)"><g stroke-linecap="round" transform="translate(64.26923076923106 77.60136530949558) rotate(0 65.5 65.5)"><path d="M-2.57 1.78 C51.25 3.01, 100.1 0.31, 133.36 2.04 M-1.67 -0.91 C50.38 -1.92, 101.52 0.65, 132.25 1.51 M134.37 0.01 C131.37 35.2, 128.91 69.04, 133.08 132.49 M132.79 -0.11 C129.96 29.75, 130.96 64.92, 130.83 131.19 M134.7 129.55 C102.08 126.89, 67.56 127.8, 1.45 134.53 M132.63 129.72 C91.04 131.43, 53.67 128, -0.05 130.93 M1.74 129.07 C1.95 93.12, 1.58 44.54, 1.31 -2.45 M-0.1 129.01 C2.62 96.15, 1.07 60.67, -0.76 0.4" stroke="#1e1e1e" stroke-width="1" fill="none"></path></g></g><g clip-path="url(#xRDo_cyyvz5rKDkyXY6E_)"><g stroke-linecap="round" transform="translate(160.38461538461536 99.02079890324558) rotate(0 5.384615384615415 5.384615384615358)"><path d="M5.92 0.26 C7.08 0.22, 8.68 0.4, 9.48 1.07 C10.28 1.74, 10.68 3.1, 10.71 4.27 C10.75 5.44, 10.4 7.08, 9.7 8.09 C9 9.1, 7.54 9.9, 6.5 10.33 C5.47 10.76, 4.39 11.1, 3.47 10.67 C2.55 10.24, 1.54 8.75, 0.98 7.76 C0.43 6.76, -0.13 5.81, 0.13 4.7 C0.39 3.59, 1.56 1.91, 2.53 1.11 C3.5 0.31, 5.39 0.12, 5.96 -0.12 C6.53 -0.35, 5.9 -0.43, 5.93 -0.29 M5.25 0.02 C6.19 -0.3, 6.73 -0.59, 7.56 0.15 C8.39 0.88, 9.77 3.2, 10.23 4.41 C10.69 5.63, 10.78 6.35, 10.33 7.42 C9.89 8.5, 8.69 10.19, 7.57 10.84 C6.45 11.5, 4.73 11.59, 3.62 11.36 C2.5 11.12, 1.56 10.39, 0.9 9.42 C0.25 8.46, -0.36 6.79, -0.31 5.56 C-0.26 4.34, 0.28 3.02, 1.21 2.09 C2.13 1.17, 4.66 0.39, 5.25 0.01 C5.83 -0.38, 4.7 -0.25, 4.7 -0.23" stroke="#1e1e1e" stroke-width="1" fill="none"></path></g></g><g clip-path="url(#xRDo_cyyvz5rKDkyXY6E_)"><g transform="translate(519.7692307692307 111.38311298076951) rotate(0 14.796000480651855 22.5)"><text x="0" y="31.536" font-family="Virgil, Segoe UI Emoji" font-size="36px" fill="#1e1e1e" text-anchor="start" style="white-space: pre;" direction="ltr" dominant-baseline="alphabetic">...</text></g></g><g clip-path="url(#xRDo_cyyvz5rKDkyXY6E_)"><g stroke-linecap="round" transform="translate(98.00000000000011 160.02444223257248) rotate(0 5.000000000000043 4.999999999999972)"><path d="M5.62 -0.38 C6.53 -0.29, 7.8 0.59, 8.45 1.42 C9.09 2.24, 9.39 3.42, 9.5 4.57 C9.61 5.73, 9.63 7.48, 9.12 8.34 C8.62 9.21, 7.54 9.5, 6.47 9.77 C5.41 10.03, 3.65 10.4, 2.71 9.93 C1.76 9.45, 1.22 8.02, 0.81 6.93 C0.4 5.84, 0.07 4.47, 0.27 3.37 C0.48 2.27, 1.06 0.85, 2.04 0.33 C3.01 -0.19, 5.49 0.26, 6.1 0.26 C6.72 0.26, 5.8 0.21, 5.73 0.33 M4.68 0.74 C5.79 0.78, 7.29 0.52, 8.1 1.2 C8.91 1.87, 9.43 3.64, 9.53 4.8 C9.62 5.95, 9.17 7.21, 8.66 8.14 C8.16 9.06, 7.44 10.04, 6.5 10.36 C5.56 10.67, 4.03 10.46, 3.04 10.04 C2.05 9.61, 0.95 8.81, 0.56 7.83 C0.18 6.85, 0.51 5.31, 0.73 4.14 C0.94 2.97, 1.04 1.58, 1.84 0.81 C2.64 0.04, 5.13 -0.47, 5.55 -0.48 C5.96 -0.48, 4.47 0.72, 4.33 0.79" stroke="#1e1e1e" stroke-width="1" fill="none"></path></g></g><g clip-path="url(#xRDo_cyyvz5rKDkyXY6E_)"><g transform="translate(83.85153785118712 50.164860652043444) rotate(0 36.61000061035156 12.5)"><text x="0" y="17.52" font-family="Virgil, Segoe UI Emoji" font-size="20px" fill="#1e1e1e" text-anchor="start" style="white-space: pre;" direction="ltr" dominant-baseline="alphabetic">RT = x</text></g></g><g clip-path="url(#xRDo_cyyvz5rKDkyXY6E_)"><g stroke-linecap="round" transform="translate(365.2692307692307 75.52042453696504) rotate(0 65.49999999999997 65.5)"><path d="M-0.09 -3.35 C44.17 0.28, 88 0.26, 132.18 2.5 M1.93 1.69 C49.16 0.16, 97.74 -1.07, 129.17 1.04 M130.35 3.57 C129.22 40.81, 126 86.99, 134.96 130.67 M129.13 1.85 C128.93 42.37, 128.82 81.94, 130.62 131.72 M128.86 134.27 C77.58 128.12, 32.93 130.07, -3.2 130.9 M130.88 131.87 C91.21 133.86, 55.29 133.68, -1.47 131.65 M-0.87 130.79 C-3.27 102.21, 2.53 67.83, 2.42 -1.51 M-0.35 129.85 C-0.61 88.8, -3.84 45.36, 0.23 0.94" stroke="#1e1e1e" stroke-width="1" fill="none"></path></g></g><g clip-path="url(#xRDo_cyyvz5rKDkyXY6E_)"><g stroke-linecap="round" transform="translate(457.38461538461496 93.93985813071504) rotate(0 8.384615384615472 8.384615384615358)"><path d="M7.73 0.35 C9.56 0.09, 12.05 0.32, 13.51 1.36 C14.97 2.41, 15.98 4.88, 16.47 6.63 C16.95 8.38, 17.17 10.33, 16.44 11.86 C15.7 13.39, 13.77 15.11, 12.04 15.81 C10.3 16.51, 7.72 16.44, 6.02 16.04 C4.32 15.65, 2.87 14.8, 1.82 13.44 C0.77 12.07, -0.36 9.6, -0.27 7.85 C-0.19 6.1, 0.99 4.33, 2.32 2.95 C3.66 1.58, 6.88 0.09, 7.75 -0.4 C8.62 -0.89, 7.46 -0.2, 7.55 0.01 M7.88 0.7 C9.61 0.62, 12.24 1.65, 13.65 2.77 C15.07 3.9, 16.07 5.73, 16.36 7.44 C16.65 9.15, 16.17 11.55, 15.4 13.02 C14.63 14.49, 13.39 15.81, 11.73 16.27 C10.06 16.74, 7.11 16.52, 5.43 15.79 C3.75 15.07, 2.62 13.32, 1.64 11.92 C0.66 10.53, -0.65 9.2, -0.44 7.42 C-0.23 5.64, 1.41 2.48, 2.91 1.24 C4.41 0, 7.6 0.09, 8.57 -0.02 C9.54 -0.14, 8.73 0.33, 8.72 0.53" stroke="#1e1e1e" stroke-width="1" fill="none"></path></g></g><g clip-path="url(#xRDo_cyyvz5rKDkyXY6E_)"><g stroke-linecap="round" transform="translate(389.9999999999998 147.94350146004217) rotate(0 15.000000000000028 14.999999999999886)"><path d="M13.93 -0.04 C16.92 -0.5, 20.83 1.28, 23.49 3.12 C26.15 4.95, 29.01 7.99, 29.87 10.98 C30.74 13.97, 30.14 18.22, 28.7 21.07 C27.25 23.92, 24.07 26.63, 21.2 28.08 C18.34 29.52, 14.63 30.42, 11.51 29.71 C8.4 29.01, 4.42 26.41, 2.5 23.84 C0.57 21.27, -0.33 17.58, -0.04 14.28 C0.26 10.99, 2.03 6.47, 4.27 4.07 C6.5 1.67, 11.66 0.51, 13.38 -0.12 C15.11 -0.76, 14.49 0.05, 14.59 0.29 M18.35 1.12 C21.42 1.61, 24.9 3.96, 26.82 6.49 C28.73 9.02, 29.88 13.16, 29.82 16.31 C29.76 19.45, 28.65 23.15, 26.46 25.36 C24.27 27.56, 19.89 29.25, 16.68 29.52 C13.48 29.78, 10.02 28.58, 7.23 26.96 C4.45 25.35, 1.01 22.94, -0.02 19.83 C-1.05 16.72, -0.35 11.37, 1.05 8.31 C2.45 5.25, 5.44 2.75, 8.4 1.5 C11.35 0.24, 17.07 0.88, 18.76 0.8 C20.44 0.73, 18.65 0.78, 18.5 1.06" stroke="#1e1e1e" stroke-width="1" fill="none"></path></g></g><g clip-path="url(#xRDo_cyyvz5rKDkyXY6E_)"><g transform="translate(384.8515378511868 48.083919879512905) rotate(0 49.9799995422363 12.5)"><text x="0" y="17.52" font-family="Virgil, Segoe UI Emoji" font-size="20px" fill="#1e1e1e" text-anchor="start" style="white-space: pre;" direction="ltr" dominant-baseline="alphabetic">RT = x+2</text></g></g><g clip-path="url(#xRDo_cyyvz5rKDkyXY6E_)"><g stroke-linecap="round"><g transform="translate(383.0769230769231 220.8573684347416) rotate(0 46.53846153846152 0)"><path d="M0.75 0.9 C16.29 0.85, 77.23 -0.01, 92.81 0.01 M-0.32 0.33 C15.09 0.45, 75.98 1.74, 91.72 1.55" stroke="#343a40" stroke-width="1" fill="none"></path></g><g transform="translate(383.0769230769231 220.8573684347416) rotate(0 46.53846153846152 0)"><path d="M68.17 9.94 C75.8 7.15, 80.46 7.34, 91.72 1.55 M68.17 9.94 C76.93 6.17, 85.35 3.99, 91.72 1.55" stroke="#343a40" stroke-width="1" fill="none"></path></g><g transform="translate(383.0769230769231 220.8573684347416) rotate(0 46.53846153846152 0)"><path d="M68.28 -7.16 C75.94 -5.48, 80.57 -0.82, 91.72 1.55 M68.28 -7.16 C77 -4.36, 85.38 0.03, 91.72 1.55" stroke="#343a40" stroke-width="1" fill="none"></path></g></g><mask></mask></g><g clip-path="url(#xRDo_cyyvz5rKDkyXY6E_)"><g stroke-linecap="round"><g transform="translate(140.76923076923083 156.3831129807695) rotate(0 237.99999999999991 -31.5)"><path d="M0 0 C79.33 -10.5, 396.67 -52.5, 476 -63 M0 0 C79.33 -10.5, 396.67 -52.5, 476 -63" stroke="#e03131" stroke-width="1" fill="none"></path></g></g><mask></mask></g><g clip-path="url(#xRDo_cyyvz5rKDkyXY6E_)"><g stroke-linecap="round" transform="translate(79.0769230769231 137.92157451923094) rotate(0 25.192307692307722 26.287625418060145)"><path d="M50.38 26.29 C50.38 27.81, 50.26 29.35, 50 30.85 C49.75 32.35, 49.36 33.85, 48.87 35.28 C48.37 36.71, 47.74 38.11, 47.01 39.43 C46.28 40.75, 45.43 42.02, 44.49 43.18 C43.55 44.35, 42.5 45.45, 41.39 46.43 C40.27 47.4, 39.05 48.29, 37.79 49.05 C36.53 49.81, 35.18 50.47, 33.81 50.99 C32.44 51.51, 31 51.91, 29.57 52.18 C28.13 52.44, 26.65 52.58, 25.19 52.58 C23.73 52.58, 22.25 52.44, 20.82 52.18 C19.38 51.91, 17.95 51.51, 16.58 50.99 C15.21 50.47, 13.86 49.81, 12.6 49.05 C11.33 48.29, 10.12 47.4, 9 46.43 C7.88 45.45, 6.83 44.35, 5.89 43.18 C4.96 42.02, 4.1 40.75, 3.38 39.43 C2.65 38.11, 2.02 36.71, 1.52 35.28 C1.02 33.85, 0.64 32.35, 0.38 30.85 C0.13 29.35, 0 27.81, 0 26.29 C0 24.77, 0.13 23.22, 0.38 21.72 C0.64 20.22, 1.02 18.73, 1.52 17.3 C2.02 15.87, 2.65 14.46, 3.38 13.14 C4.1 11.83, 4.96 10.56, 5.89 9.39 C6.83 8.22, 7.88 7.13, 9 6.15 C10.12 5.17, 11.33 4.28, 12.6 3.52 C13.86 2.76, 15.21 2.11, 16.58 1.59 C17.95 1.06, 19.38 0.66, 20.82 0.4 C22.25 0.14, 23.73 0, 25.19 0 C26.65 0, 28.13 0.14, 29.57 0.4 C31 0.66, 32.44 1.06, 33.81 1.59 C35.18 2.11, 36.53 2.76, 37.79 3.52 C39.05 4.28, 40.27 5.17, 41.39 6.15 C42.5 7.13, 43.55 8.22, 44.49 9.39 C45.43 10.56, 46.28 11.83, 47.01 13.14 C47.74 14.46, 48.37 15.87, 48.87 17.3 C49.36 18.73, 49.75 20.22, 50 21.72 C50.26 23.22, 50.32 25.53, 50.38 26.29 C50.45 27.05, 50.45 25.53, 50.38 26.29" stroke="#e03131" stroke-width="1.5" fill="none" stroke-dasharray="8 9"></path></g></g><g clip-path="url(#xRDo_cyyvz5rKDkyXY6E_)"><g stroke-linecap="round" transform="translate(226.5769230769231 136.09548756270942) rotate(0 25.192307692307708 26.287625418060145)"><path d="M50.38 26.29 C50.38 27.81, 50.26 29.35, 50 30.85 C49.75 32.35, 49.36 33.85, 48.87 35.28 C48.37 36.71, 47.74 38.11, 47.01 39.43 C46.28 40.75, 45.43 42.02, 44.49 43.18 C43.55 44.35, 42.5 45.45, 41.39 46.43 C40.27 47.4, 39.05 48.29, 37.79 49.05 C36.53 49.81, 35.18 50.47, 33.81 50.99 C32.44 51.51, 31 51.91, 29.57 52.18 C28.13 52.44, 26.65 52.58, 25.19 52.58 C23.73 52.58, 22.25 52.44, 20.82 52.18 C19.38 51.91, 17.95 51.51, 16.58 50.99 C15.21 50.47, 13.86 49.81, 12.6 49.05 C11.33 48.29, 10.12 47.4, 9 46.43 C7.88 45.45, 6.83 44.35, 5.89 43.18 C4.96 42.02, 4.1 40.75, 3.38 39.43 C2.65 38.11, 2.02 36.71, 1.52 35.28 C1.02 33.85, 0.64 32.35, 0.38 30.85 C0.13 29.35, 0 27.81, 0 26.29 C0 24.77, 0.13 23.22, 0.38 21.72 C0.64 20.22, 1.02 18.73, 1.52 17.3 C2.02 15.87, 2.65 14.46, 3.38 13.14 C4.1 11.83, 4.96 10.56, 5.89 9.39 C6.83 8.22, 7.88 7.13, 9 6.15 C10.12 5.17, 11.33 4.28, 12.6 3.52 C13.86 2.76, 15.21 2.11, 16.58 1.59 C17.95 1.06, 19.38 0.66, 20.82 0.4 C22.25 0.14, 23.73 0, 25.19 0 C26.65 0, 28.13 0.14, 29.57 0.4 C31 0.66, 32.44 1.06, 33.81 1.59 C35.18 2.11, 36.53 2.76, 37.79 3.52 C39.05 4.28, 40.27 5.17, 41.39 6.15 C42.5 7.13, 43.55 8.22, 44.49 9.39 C45.43 10.56, 46.28 11.83, 47.01 13.14 C47.74 14.46, 48.37 15.87, 48.87 17.3 C49.36 18.73, 49.75 20.22, 50 21.72 C50.26 23.22, 50.32 25.53, 50.38 26.29 C50.45 27.05, 50.45 25.53, 50.38 26.29" stroke="#e03131" stroke-width="1.5" fill="none" stroke-dasharray="8 9"></path></g></g><g clip-path="url(#xRDo_cyyvz5rKDkyXY6E_)"><g stroke-linecap="round" transform="translate(379.5769230769231 134.09548756270942) rotate(0 25.192307692307708 26.287625418060145)"><path d="M50.38 26.29 C50.38 27.81, 50.26 29.35, 50 30.85 C49.75 32.35, 49.36 33.85, 48.87 35.28 C48.37 36.71, 47.74 38.11, 47.01 39.43 C46.28 40.75, 45.43 42.02, 44.49 43.18 C43.55 44.35, 42.5 45.45, 41.39 46.43 C40.27 47.4, 39.05 48.29, 37.79 49.05 C36.53 49.81, 35.18 50.47, 33.81 50.99 C32.44 51.51, 31 51.91, 29.57 52.18 C28.13 52.44, 26.65 52.58, 25.19 52.58 C23.73 52.58, 22.25 52.44, 20.82 52.18 C19.38 51.91, 17.95 51.51, 16.58 50.99 C15.21 50.47, 13.86 49.81, 12.6 49.05 C11.33 48.29, 10.12 47.4, 9 46.43 C7.88 45.45, 6.83 44.35, 5.89 43.18 C4.96 42.02, 4.1 40.75, 3.38 39.43 C2.65 38.11, 2.02 36.71, 1.52 35.28 C1.02 33.85, 0.64 32.35, 0.38 30.85 C0.13 29.35, 0 27.81, 0 26.29 C0 24.77, 0.13 23.22, 0.38 21.72 C0.64 20.22, 1.02 18.73, 1.52 17.3 C2.02 15.87, 2.65 14.46, 3.38 13.14 C4.1 11.83, 4.96 10.56, 5.89 9.39 C6.83 8.22, 7.88 7.13, 9 6.15 C10.12 5.17, 11.33 4.28, 12.6 3.52 C13.86 2.76, 15.21 2.11, 16.58 1.59 C17.95 1.06, 19.38 0.66, 20.82 0.4 C22.25 0.14, 23.73 0, 25.19 0 C26.65 0, 28.13 0.14, 29.57 0.4 C31 0.66, 32.44 1.06, 33.81 1.59 C35.18 2.11, 36.53 2.76, 37.79 3.52 C39.05 4.28, 40.27 5.17, 41.39 6.15 C42.5 7.13, 43.55 8.22, 44.49 9.39 C45.43 10.56, 46.28 11.83, 47.01 13.14 C47.74 14.46, 48.37 15.87, 48.87 17.3 C49.36 18.73, 49.75 20.22, 50 21.72 C50.26 23.22, 50.32 25.53, 50.38 26.29 C50.45 27.05, 50.45 25.53, 50.38 26.29" stroke="#e03131" stroke-width="1.5" fill="none" stroke-dasharray="8 9"></path></g></g><g clip-path="url(#xRDo_cyyvz5rKDkyXY6E_)"><g stroke-linecap="round"><g transform="translate(289.76923076923083 159.8831129807695) rotate(0 162.49999999999991 -32.5)"><path d="M0 0 C54.17 -10.83, 270.83 -54.17, 325 -65 M0 0 C54.17 -10.83, 270.83 -54.17, 325 -65" stroke="#e03131" stroke-width="1" fill="none"></path></g><g transform="translate(289.76923076923083 159.8831129807695) rotate(0 162.49999999999991 -32.5)"><path d="M325 -65 L312.91 -56.12 L310.43 -68.55 L325 -65" stroke="none" stroke-width="0" fill="#e03131" fill-rule="evenodd"></path><path d="M325 -65 C321.72 -62.59, 318.44 -60.18, 312.91 -56.12 M325 -65 C321.57 -62.48, 318.14 -59.96, 312.91 -56.12 M312.91 -56.12 C312.19 -59.74, 311.46 -63.37, 310.43 -68.55 M312.91 -56.12 C311.94 -60.98, 310.97 -65.84, 310.43 -68.55 M310.43 -68.55 C315 -67.44, 319.57 -66.32, 325 -65 M310.43 -68.55 C313.63 -67.77, 316.84 -66.99, 325 -65 M325 -65 C325 -65, 325 -65, 325 -65 M325 -65 C325 -65, 325 -65, 325 -65" stroke="#e03131" stroke-width="1" fill="none"></path></g></g><mask></mask></g><g clip-path="url(#xRDo_cyyvz5rKDkyXY6E_)"><g stroke-linecap="round"><g transform="translate(441.2692307692311 155.8831129807695) rotate(0 80.99999999999989 -29.5)"><path d="M0 0 C27 -9.83, 135 -49.17, 162 -59 M0 0 C27 -9.83, 135 -49.17, 162 -59" stroke="#e03131" stroke-width="1" fill="none"></path></g></g><mask></mask></g><g clip-path="url(#xRDo_cyyvz5rKDkyXY6E_)"><g stroke-linecap="round" transform="translate(146.76923076923083 85.38311298076951) rotate(0 19 19.5)"><path d="M38 19.5 C38 20.63, 37.9 21.77, 37.71 22.89 C37.52 24, 37.23 25.11, 36.85 26.17 C36.48 27.23, 36 28.27, 35.45 29.25 C34.9 30.23, 34.26 31.17, 33.55 32.03 C32.85 32.9, 32.06 33.71, 31.21 34.44 C30.37 35.16, 29.45 35.82, 28.5 36.39 C27.55 36.95, 26.53 37.44, 25.5 37.82 C24.46 38.21, 23.38 38.51, 22.3 38.7 C21.22 38.9, 20.1 39, 19 39 C17.9 39, 16.78 38.9, 15.7 38.7 C14.62 38.51, 13.54 38.21, 12.5 37.82 C11.47 37.44, 10.45 36.95, 9.5 36.39 C8.55 35.82, 7.63 35.16, 6.79 34.44 C5.94 33.71, 5.15 32.9, 4.45 32.03 C3.74 31.17, 3.1 30.23, 2.55 29.25 C2 28.27, 1.52 27.23, 1.15 26.17 C0.77 25.11, 0.48 24, 0.29 22.89 C0.1 21.77, 0 20.63, 0 19.5 C0 18.37, 0.1 17.23, 0.29 16.11 C0.48 15, 0.77 13.89, 1.15 12.83 C1.52 11.77, 2 10.73, 2.55 9.75 C3.1 8.77, 3.74 7.83, 4.45 6.97 C5.15 6.1, 5.94 5.29, 6.79 4.56 C7.63 3.84, 8.55 3.18, 9.5 2.61 C10.45 2.05, 11.47 1.56, 12.5 1.18 C13.54 0.79, 14.62 0.49, 15.7 0.3 C16.78 0.1, 17.9 0, 19 0 C20.1 0, 21.22 0.1, 22.3 0.3 C23.38 0.49, 24.46 0.79, 25.5 1.18 C26.53 1.56, 27.55 2.05, 28.5 2.61 C29.45 3.18, 30.37 3.84, 31.21 4.56 C32.06 5.29, 32.85 6.1, 33.55 6.97 C34.26 7.83, 34.9 8.77, 35.45 9.75 C36 10.73, 36.48 11.77, 36.85 12.83 C37.23 13.89, 37.52 15, 37.71 16.11 C37.9 17.23, 37.95 18.94, 38 19.5 C38.05 20.06, 38.05 18.94, 38 19.5" stroke="#2f9e44" stroke-width="1.5" fill="none" stroke-dasharray="8 9"></path></g></g><g clip-path="url(#xRDo_cyyvz5rKDkyXY6E_)"><g stroke-linecap="round" transform="translate(292.76923076923083 83.88311298076951) rotate(0 19 19.5)"><path d="M38 19.5 C38 20.63, 37.9 21.77, 37.71 22.89 C37.52 24, 37.23 25.11, 36.85 26.17 C36.48 27.23, 36 28.27, 35.45 29.25 C34.9 30.23, 34.26 31.17, 33.55 32.03 C32.85 32.9, 32.06 33.71, 31.21 34.44 C30.37 35.16, 29.45 35.82, 28.5 36.39 C27.55 36.95, 26.53 37.44, 25.5 37.82 C24.46 38.21, 23.38 38.51, 22.3 38.7 C21.22 38.9, 20.1 39, 19 39 C17.9 39, 16.78 38.9, 15.7 38.7 C14.62 38.51, 13.54 38.21, 12.5 37.82 C11.47 37.44, 10.45 36.95, 9.5 36.39 C8.55 35.82, 7.63 35.16, 6.79 34.44 C5.94 33.71, 5.15 32.9, 4.45 32.03 C3.74 31.17, 3.1 30.23, 2.55 29.25 C2 28.27, 1.52 27.23, 1.15 26.17 C0.77 25.11, 0.48 24, 0.29 22.89 C0.1 21.77, 0 20.63, 0 19.5 C0 18.37, 0.1 17.23, 0.29 16.11 C0.48 15, 0.77 13.89, 1.15 12.83 C1.52 11.77, 2 10.73, 2.55 9.75 C3.1 8.77, 3.74 7.83, 4.45 6.97 C5.15 6.1, 5.94 5.29, 6.79 4.56 C7.63 3.84, 8.55 3.18, 9.5 2.61 C10.45 2.05, 11.47 1.56, 12.5 1.18 C13.54 0.79, 14.62 0.49, 15.7 0.3 C16.78 0.1, 17.9 0, 19 0 C20.1 0, 21.22 0.1, 22.3 0.3 C23.38 0.49, 24.46 0.79, 25.5 1.18 C26.53 1.56, 27.55 2.05, 28.5 2.61 C29.45 3.18, 30.37 3.84, 31.21 4.56 C32.06 5.29, 32.85 6.1, 33.55 6.97 C34.26 7.83, 34.9 8.77, 35.45 9.75 C36 10.73, 36.48 11.77, 36.85 12.83 C37.23 13.89, 37.52 15, 37.71 16.11 C37.9 17.23, 37.95 18.94, 38 19.5 C38.05 20.06, 38.05 18.94, 38 19.5" stroke="#2f9e44" stroke-width="1.5" fill="none" stroke-dasharray="8 9"></path></g></g><g clip-path="url(#xRDo_cyyvz5rKDkyXY6E_)"><g stroke-linecap="round" transform="translate(446.76923076923066 82.88311298076951) rotate(0 19 19.5)"><path d="M38 19.5 C38 20.63, 37.9 21.77, 37.71 22.89 C37.52 24, 37.23 25.11, 36.85 26.17 C36.48 27.23, 36 28.27, 35.45 29.25 C34.9 30.23, 34.26 31.17, 33.55 32.03 C32.85 32.9, 32.06 33.71, 31.21 34.44 C30.37 35.16, 29.45 35.82, 28.5 36.39 C27.55 36.95, 26.53 37.44, 25.5 37.82 C24.46 38.21, 23.38 38.51, 22.3 38.7 C21.22 38.9, 20.1 39, 19 39 C17.9 39, 16.78 38.9, 15.7 38.7 C14.62 38.51, 13.54 38.21, 12.5 37.82 C11.47 37.44, 10.45 36.95, 9.5 36.39 C8.55 35.82, 7.63 35.16, 6.79 34.44 C5.94 33.71, 5.15 32.9, 4.45 32.03 C3.74 31.17, 3.1 30.23, 2.55 29.25 C2 28.27, 1.52 27.23, 1.15 26.17 C0.77 25.11, 0.48 24, 0.29 22.89 C0.1 21.77, 0 20.63, 0 19.5 C0 18.37, 0.1 17.23, 0.29 16.11 C0.48 15, 0.77 13.89, 1.15 12.83 C1.52 11.77, 2 10.73, 2.55 9.75 C3.1 8.77, 3.74 7.83, 4.45 6.97 C5.15 6.1, 5.94 5.29, 6.79 4.56 C7.63 3.84, 8.55 3.18, 9.5 2.61 C10.45 2.05, 11.47 1.56, 12.5 1.18 C13.54 0.79, 14.62 0.49, 15.7 0.3 C16.78 0.1, 17.9 0, 19 0 C20.1 0, 21.22 0.1, 22.3 0.3 C23.38 0.49, 24.46 0.79, 25.5 1.18 C26.53 1.56, 27.55 2.05, 28.5 2.61 C29.45 3.18, 30.37 3.84, 31.21 4.56 C32.06 5.29, 32.85 6.1, 33.55 6.97 C34.26 7.83, 34.9 8.77, 35.45 9.75 C36 10.73, 36.48 11.77, 36.85 12.83 C37.23 13.89, 37.52 15, 37.71 16.11 C37.9 17.23, 37.95 18.94, 38 19.5 C38.05 20.06, 38.05 18.94, 38 19.5" stroke="#2f9e44" stroke-width="1.5" fill="none" stroke-dasharray="8 9"></path></g></g><g clip-path="url(#xRDo_cyyvz5rKDkyXY6E_)"><g stroke-linecap="round"><g transform="translate(493.76923076923066 108.38311298076951) rotate(0 58.5 17)"><path d="M0 0 C19.5 5.67, 97.5 28.33, 117 34 M0 0 C19.5 5.67, 97.5 28.33, 117 34" stroke="#2f9e44" stroke-width="1" fill="none"></path></g><g transform="translate(493.76923076923066 108.38311298076951) rotate(0 58.5 17)"><path d="M117 34 L102.18 36.29 L105.71 24.12 L117 34" stroke="none" stroke-width="0" fill="#2f9e44" fill-rule="evenodd"></path><path d="M117 34 C113.8 34.49, 110.61 34.99, 102.18 36.29 M117 34 C111.11 34.91, 105.22 35.82, 102.18 36.29 M102.18 36.29 C103.17 32.87, 104.17 29.45, 105.71 24.12 M102.18 36.29 C103.01 33.42, 103.85 30.54, 105.71 24.12 M105.71 24.12 C109.31 27.27, 112.91 30.42, 117 34 M105.71 24.12 C109.9 27.78, 114.09 31.45, 117 34 M117 34 C117 34, 117 34, 117 34 M117 34 C117 34, 117 34, 117 34" stroke="#2f9e44" stroke-width="1" fill="none"></path></g></g><mask></mask></g><g clip-path="url(#xRDo_cyyvz5rKDkyXY6E_)"><g stroke-linecap="round"><g transform="translate(341.26923076923083 103.38311298076951) rotate(0 134.49999999999991 19)"><path d="M0 0 C44.83 6.33, 224.17 31.67, 269 38 M0 0 C44.83 6.33, 224.17 31.67, 269 38" stroke="#2f9e44" stroke-width="1" fill="none"></path></g><g transform="translate(341.26923076923083 103.38311298076951) rotate(0 134.49999999999991 19)"><path d="M269 38 L254.65 42.38 L256.43 29.82 L269 38" stroke="none" stroke-width="0" fill="#2f9e44" fill-rule="evenodd"></path><path d="M269 38 C265.19 39.16, 261.38 40.32, 254.65 42.38 M269 38 C263.37 39.72, 257.74 41.43, 254.65 42.38 M254.65 42.38 C255.34 37.5, 256.03 32.63, 256.43 29.82 M254.65 42.38 C255.35 37.46, 256.04 32.55, 256.43 29.82 M256.43 29.82 C260.12 32.23, 263.82 34.63, 269 38 M256.43 29.82 C260.61 32.54, 264.79 35.26, 269 38 M269 38 C269 38, 269 38, 269 38 M269 38 C269 38, 269 38, 269 38" stroke="#2f9e44" stroke-width="1" fill="none"></path></g></g><mask></mask></g><g clip-path="url(#xRDo_cyyvz5rKDkyXY6E_)"><g stroke-linecap="round"><g transform="translate(192.26923076923083 104.38311298076951) rotate(0 208.99999999999991 17.5)"><path d="M0 0 C69.67 5.83, 348.33 29.17, 418 35 M0 0 C69.67 5.83, 348.33 29.17, 418 35" stroke="#2f9e44" stroke-width="1" fill="none"></path></g><g transform="translate(192.26923076923083 104.38311298076951) rotate(0 208.99999999999991 17.5)"><path d="M418 35 L403.92 40.18 L404.98 27.55 L418 35" stroke="none" stroke-width="0" fill="#2f9e44" fill-rule="evenodd"></path><path d="M418 35 C413.89 36.51, 409.79 38.02, 403.92 40.18 M418 35 C412.5 37.03, 407 39.05, 403.92 40.18 M403.92 40.18 C404.26 36.22, 404.59 32.25, 404.98 27.55 M403.92 40.18 C404.16 37.4, 404.39 34.62, 404.98 27.55 M404.98 27.55 C408.26 29.42, 411.54 31.3, 418 35 M404.98 27.55 C408.54 29.58, 412.09 31.62, 418 35 M418 35 C418 35, 418 35, 418 35 M418 35 C418 35, 418 35, 418 35" stroke="#2f9e44" stroke-width="1" fill="none"></path></g></g><mask></mask></g><g clip-path="url(#xRDo_cyyvz5rKDkyXY6E_)"><g transform="translate(636.7692307692307 47.71453387920701) rotate(0 115.89000701904297 37.5)"><text x="0" y="17.52" font-family="Virgil, Segoe UI Emoji" font-size="20px" fill="#1e1e1e" text-anchor="start" style="white-space: pre;" direction="ltr" dominant-baseline="alphabetic">-M/z centroid</text><text x="0" y="42.519999999999996" font-family="Virgil, Segoe UI Emoji" font-size="20px" fill="#1e1e1e" text-anchor="start" style="white-space: pre;" direction="ltr" dominant-baseline="alphabetic">-retention time centroid</text><text x="0" y="67.52" font-family="Virgil, Segoe UI Emoji" font-size="20px" fill="#1e1e1e" text-anchor="start" style="white-space: pre;" direction="ltr" dominant-baseline="alphabetic">-mobility centroid</text></g></g></svg>